# xmcd
#
# Track frame offsets: 
#        300
#        14955
#        32303
#        46021
#        68029
#        78144
#        99836
#
# Disc length: 1561 seconds
#
# Revision: 0
# Processed by: cddbd v1.5.2PL0 Copyright (c) Steve Scherf et al.
# Submitted via: ExactAudioCopy v0.99pb3
#
DISCID=46061507
DTITLE=Grassphalt - Grassphalt Demo CD
DYEAR=2009
DGENRE=Bluegrass
TTITLE0=01 Blue Trail of Sorrow
TTITLE1=02 Kentucky Mandolin
TTITLE2=03 Mama Don't Allow
TTITLE3=04 Wayfaring Stranger
TTITLE4=05 Fireball Mail
TTITLE5=06 House of Gold
TTITLE6=07 Gold Rush
EXTD=
EXTT0=
EXTT1=
EXTT2=
EXTT3=
EXTT4=
EXTT5=
EXTT6=
PLAYORDER=
